PathFileType	4	(X/Y/Z)	c:/Users/goper/Files/vsCode/490R/osim_files/C07/C07_Static.trc
DataRate	CameraRate	NumFrames	NumMarkers	Units                	OrigDataRate	OrigDataStartFrame	OrigNumFrames
250.00	250.00	6	36	mm	250.0	389	1554
                Frame#	Time	LPSIS			LASIS			LTH1			LTH2			LTH3			LTH4			LLFE			LMFE			LSH1			LSH2			LSH3			LSH4			LLMAL			LMMAL			LCAL			LMTP5			LTOE			LMTP1			RPSIS			RASIS			RTH1			RTH2			RTH3			RTH4			RLFE			RMFE			RSH1			RSH2			RSH3			RSH4			RLMAL			RMMAL			RCAL			RMTP1			RTOE			RMTP5		
		X1	Y1	Z1	X2	Y2	Z2	X3	Y3	Z3	X4	Y4	Z4	X5	Y5	Z5	X6	Y6	Z6	X7	Y7	Z7	X8	Y8	Z8	X9	Y9	Z9	X10	Y10	Z10	X11	Y11	Z11	X12	Y12	Z12	X13	Y13	Z13	X14	Y14	Z14	X15	Y15	Z15	X16	Y16	Z16	X17	Y17	Z17	X18	Y18	Z18	X19	Y19	Z19	X20	Y20	Z20	X21	Y21	Z21	X22	Y22	Z22	X23	Y23	Z23	X24	Y24	Z24	X25	Y25	Z25	X26	Y26	Z26	X27	Y27	Z27	X28	Y28	Z28	X29	Y29	Z29	X30	Y30	Z30	X31	Y31	Z31	X32	Y32	Z32	X33	Y33	Z33	X34	Y34	Z34	X35	Y35	Z35	X36	Y36	Z36

389	1.55200	-395.69223	1030.78198	363.31564	-231.80258	986.25153	282.94800	-314.46463	800.16461	218.81554	-314.13358	721.77405	215.60269	-314.11121	645.55353	224.22449	-237.81291	722.20593	243.91223	-344.73767	524.56226	240.44489	-353.67010	502.96555	361.89703	-382.18149	338.05908	215.09857	-399.41162	292.93311	225.87343	-343.42877	342.08798	230.01935	-347.64883	296.53152	234.45200	-405.99539	109.55730	258.11841	-382.48468	127.45724	332.21097	-465.44638	47.22514	301.27203	-281.96396	41.17080	226.30630	-226.44939	52.75313	282.59387	-256.61203	41.67294	332.95703	-388.27484	1033.19470	464.22961	-232.15923	976.26697	535.75818	-284.23029	828.91193	595.85034	-287.55463	749.15387	597.15002	-294.98193	667.59326	591.21655	-220.83943	744.21814	555.44037	-323.64587	496.77206	556.37152	-338.03400	501.32373	444.84183	-394.59198	322.37143	578.63062	-367.46439	272.99219	580.68878	-333.50809	321.19077	572.28357	-337.78055	276.58566	569.55975	-401.89938	97.89796	540.68823	-377.82648	105.48919	461.84515	-453.58264	45.69822	498.82022	-245.12463	39.85341	464.19525	-219.10095	51.97383	511.62183	-263.86993	36.94084	573.18561
390	1.55600	-395.70651	1030.78723	363.31210	-231.82373	986.21606	282.95178	-314.44174	800.15271	218.81485	-314.54913	721.65057	215.87239	-314.12601	645.53528	224.23483	-237.78595	722.19434	243.85617	-344.75717	524.56976	240.47716	-353.73843	503.02664	361.94052	-382.19678	338.05246	215.12427	-399.49832	292.84232	225.92221	-343.45715	342.07159	230.06552	-347.61325	296.51096	234.43774	-405.97733	109.54104	258.13873	-382.43512	127.45470	332.23026	-465.48648	47.25203	301.27014	-281.96002	41.15271	226.34039	-226.38466	52.77537	282.61945	-256.57916	41.61532	332.98734	-388.25430	1033.21265	464.22318	-232.11746	976.25317	535.72363	-284.23691	828.91852	595.81366	-287.57657	749.17242	597.14136	-294.93311	667.57568	591.07977	-221.44240	743.98486	555.40466	-323.61392	496.80145	556.34790	-338.02829	501.28864	444.83777	-394.51498	322.35388	578.64087	-367.40051	272.99698	580.67676	-333.45114	321.18307	572.25079	-337.70697	276.57349	569.51465	-401.81848	97.92020	540.70856	-377.82913	105.49245	461.85760	-453.19235	45.57227	498.74081	-245.11128	39.81166	464.21384	-219.07574	51.97030	511.60181	-263.81180	36.95286	573.16846
391	1.56000	-395.73355	1030.81897	363.28885	-231.82210	986.22406	282.91672	-314.46185	800.17810	218.80630	-314.53308	721.61603	215.85892	-314.14709	645.51849	224.22777	-237.76645	722.20355	243.84848	-344.73773	524.54608	240.47359	-353.80057	503.06903	361.96204	-382.19199	338.05136	215.12799	-399.46774	292.85529	225.90253	-343.44910	342.08102	230.04715	-347.60355	296.50909	234.43492	-405.97867	109.52843	258.13153	-382.34036	127.41240	332.23578	-465.46951	47.27177	301.27719	-281.94644	41.12325	226.36105	-226.37514	52.69928	282.68274	-256.51266	41.58583	333.04422	-388.23737	1033.17590	464.18436	-232.05785	976.26611	535.65796	-284.17151	828.90387	595.84631	-287.48062	749.12939	597.14496	-294.80945	667.51654	590.98419	-221.40739	744.01715	555.34344	-323.54977	496.78552	556.26874	-337.99670	501.26965	444.83008	-394.44016	322.32443	578.67340	-367.30194	272.97543	580.69482	-333.39728	321.19455	572.20129	-337.63187	276.60165	569.45190	-401.75632	97.90855	540.70331	-377.84619	105.46949	461.89111	-453.58383	45.71130	498.83893	-245.07600	39.80541	464.20535	-219.03114	52.01160	511.56439	-263.79028	36.94679	573.16406
392	1.56400	-395.72229	1030.80017	363.28784	-231.84894	986.19061	282.92722	-314.48007	800.15991	218.81058	-314.57077	721.62146	215.87491	-314.14093	645.49969	224.22325	-237.83009	722.15460	243.87462	-344.77209	524.54291	240.47711	-353.81503	503.08078	361.96185	-382.15085	338.03500	215.13364	-399.41635	292.88214	225.90613	-343.44824	342.02527	230.05276	-347.62436	296.48508	234.42365	-405.99982	109.50998	258.16260	-382.30670	127.35859	332.24042	-465.46008	47.28337	301.30032	-281.92618	41.10978	226.37555	-226.32704	52.63308	282.77200	-256.52814	41.45165	333.13815	-388.17661	1033.14392	464.23975	-232.05147	976.21216	535.66162	-284.18207	828.88733	595.83990	-287.42908	749.10468	597.18756	-294.79330	667.49957	591.06140	-221.39676	743.97504	555.35089	-323.53717	496.69879	556.21130	-338.01157	501.25220	444.87015	-394.45782	322.28491	578.68311	-367.23499	272.92410	580.72375	-333.37915	321.14362	572.21466	-337.59433	276.57721	569.45325	-401.74295	97.88733	540.69427	-377.83038	105.44267	461.91556	-453.54648	45.66159	498.88431	-245.10318	39.72635	464.28271	-219.02907	51.95679	511.61920	-263.78168	36.90757	573.19629
393	1.56800	-395.71536	1030.80042	363.28021	-231.85149	986.19226	282.90506	-314.48215	800.14417	218.81541	-314.58649	721.61365	215.89343	-314.15964	645.51575	224.22054	-237.82651	722.15967	243.88086	-344.78455	524.53644	240.48859	-353.82535	503.08298	362.02051	-382.21820	338.02618	215.14273	-399.53226	292.83127	225.94391	-343.45651	342.05630	230.05205	-347.64053	296.49042	234.48009	-405.99210	109.51228	258.15244	-382.30020	127.34290	332.24976	-465.46112	47.23716	301.29727	-281.94608	41.08646	226.39661	-226.32845	52.59756	282.83023	-256.51727	41.45570	333.23322	-388.20435	1033.10071	464.24866	-232.10855	976.22565	535.67841	-284.14398	828.87268	595.88867	-287.48166	749.11523	597.19196	-294.78983	667.41675	591.06458	-221.42349	743.96478	555.38196	-323.53320	496.64062	556.21564	-338.03174	501.24298	444.88028	-394.45465	322.25790	578.72711	-367.29929	272.93372	580.75610	-333.41620	321.16837	572.25360	-337.64276	276.56915	569.48370	-401.73712	97.88067	540.75006	-377.85239	105.44885	461.91953	-453.50595	45.62621	498.88193	-245.10948	39.71842	464.31851	-219.02371	51.94957	511.65015	-263.80728	36.90945	573.23364
394	1.57200	-395.75534	1030.76697	363.28497	-231.86469	986.18494	282.91345	-314.48199	800.12305	218.79625	-314.58875	721.62103	215.88083	-314.20026	645.49548	224.26196	-237.82117	722.16431	243.86449	-344.75357	524.51410	240.48055	-353.88382	503.06189	362.04004	-382.19968	338.02301	215.15117	-399.42288	292.86127	225.89087	-343.45779	342.02753	230.06419	-347.61133	296.48911	234.43138	-406.00684	109.51421	258.17703	-382.41931	127.37974	332.28204	-465.49393	47.20931	301.30173	-281.94391	41.07497	226.40047	-226.35005	52.64184	282.75024	-256.60336	41.49501	333.11929	-388.26318	1033.11792	464.21494	-232.11203	976.24048	535.67792	-284.23541	828.88422	595.91052	-287.55197	749.13928	597.21014	-294.86319	667.47803	591.02167	-221.43871	743.98083	555.36206	-323.57773	496.68576	556.21710	-338.00247	501.22748	444.87808	-394.49731	322.30963	578.74286	-367.35358	272.96332	580.80096	-333.44019	321.15732	572.26477	-337.66608	276.55869	569.51050	-401.81927	97.89149	540.80219	-377.87399	105.41458	461.95505	-453.58847	45.65495	498.87787	-245.11342	39.74874	464.28506	-219.03693	51.94191	511.65067	-263.84177	36.90479	573.27887
